<svg xmlns="http://www.w3.org/2000/svg" xml:space="preserve" style="background: #0a2a3f;" viewBox="240.66 251 599.34 422"><path fill="#AAF" d="m334 603 10 7v-60l47-4 114-10 90-7c17-1 35-3 51-11 29-15 46-39 51-72l2-14h21c-3 17-5 34-13 50-20 41-52 62-97 66l-116 10-111 9-19 2v80l-3-2-87-61c-3-3-4-5-5-9l-21-159-7-54c-2-22 5-43 17-61 23-34 56-52 97-52h394l-5 31-15 91c0 4-1 5-5 5h-16l17-106H353c-47 0-87 35-92 81-1 8 1 17 2 25l18 136 7 53c1 3 2 5 4 6l42 30z"></path><path fill="#AAF" d="M509 394h253c40 0 77 34 78 73 0 11-2 23-4 35l-14 110c-1 8-3 13-10 17l-61 44v-58l-35-3-103-9-40-4c-18-4-32-13-43-27l25-2 2 1c13 8 28 10 43 11l116 10 52 4 3 1v37l16-11c12-6 16-16 17-30l16-118c2-18-6-33-19-45a59 59 0 0 0-42-15H514l16 102-20 2-20-125h19z"></path></svg>
