<?xml version="1.0" encoding="utf-8"?>
<!-- Uploaded to: SVG Repo, www.svgrepo.com, Generator: SVG Repo Mixer Tools -->
<svg width="800px" height="800px" viewBox="0 0 1024 1024" class="icon"  version="1.1" xmlns="http://www.w3.org/2000/svg"><path d="M855.04 815.36c0 17.92-16.64 32-38.4 32H226.56c-20.48 0-38.4-14.08-38.4-32V371.2c0-17.92 16.64-32 38.4-32h590.08c20.48 0 38.4 14.08 38.4 32v444.16z" fill="#E1E0A6" /><path d="M816.64 860.16H226.56c-28.16 0-51.2-20.48-51.2-44.8V371.2c0-24.32 23.04-44.8 51.2-44.8h590.08c28.16 0 51.2 20.48 51.2 44.8v444.16c0 24.32-23.04 44.8-51.2 44.8zM226.56 352c-14.08 0-25.6 8.96-25.6 19.2v444.16c0 10.24 11.52 19.2 25.6 19.2h590.08c14.08 0 25.6-8.96 25.6-19.2V371.2c0-10.24-11.52-19.2-25.6-19.2H226.56z" fill="#231C1C" /><path d="M917.76 449.28c0 21.76-14.08 39.68-32 39.68L520.96 328.96 156.16 488.96c-17.92 0-32-17.92-32-39.68v-56.32c0-21.76 14.08-39.68 32-39.68l364.8-184.32 364.8 184.32c17.92 0 32 17.92 32 39.68v56.32z" fill="#6FB0BE" /><path d="M885.76 501.76c-1.28 0-3.84 0-5.12-1.28L520.96 343.04 161.28 500.48c-1.28 1.28-3.84 1.28-5.12 1.28-24.32 0-44.8-23.04-44.8-52.48v-56.32c0-28.16 17.92-51.2 40.96-52.48l362.24-183.04c3.84-1.28 7.68-1.28 11.52 0l362.24 183.04c23.04 2.56 40.96 24.32 40.96 52.48v56.32c1.28 28.16-17.92 52.48-43.52 52.48zM520.96 183.04l-358.4 181.76c-1.28 1.28-3.84 1.28-5.12 1.28-10.24 0-19.2 12.8-19.2 26.88v56.32c0 14.08 7.68 25.6 16.64 26.88l362.24-158.72c3.84-1.28 6.4-1.28 10.24 0l362.24 158.72c8.96-1.28 16.64-12.8 16.64-26.88v-56.32c0-15.36-8.96-26.88-19.2-26.88-2.56 0-3.84 0-6.4-1.28L520.96 183.04z" fill="#231C1C" /><path d="M623.36 848.64H445.44V634.88c0-17.92 15.36-30.72 33.28-30.72h111.36c17.92 0 33.28 12.8 33.28 30.72v213.76z" fill="#FDE8C2" /><path d="M623.36 861.44H445.44c-7.68 0-12.8-5.12-12.8-12.8V634.88c0-24.32 19.2-43.52 46.08-43.52h111.36c25.6 0 46.08 17.92 46.08 43.52v212.48c0 7.68-5.12 14.08-12.8 14.08z m-165.12-25.6h152.32V634.88c0-11.52-10.24-17.92-20.48-17.92h-111.36c-10.24 0-20.48 5.12-20.48 17.92v200.96z" fill="#231C1C" /></svg>